<svg xmlns="http://www.w3.org/2000/svg" width="1600" height="1040" viewBox="0 0 1600 1040" role="img" aria-labelledby="title desc">
  <title id="title">Kova Hand 內部配置接線圖</title>
  <desc id="desc">依 Kova Hand 底座內部元件的實際相對位置繪製：ESP32-C3 位於左上、DC 母座端子位於中央上方、SY8205 位於右上、PCA9685 橫放於下方，並標示六顆 MG90S 的接線。</desc>
  <defs>
    <linearGradient id="page" x1="0" y1="0" x2="1" y2="1"><stop offset="0" stop-color="#f8fafc"/><stop offset="1" stop-color="#edf2f7"/></linearGradient>
    <linearGradient id="shell" x1="0" y1="0" x2="0" y2="1"><stop offset="0" stop-color="#f7f8fa"/><stop offset="1" stop-color="#e8edf2"/></linearGradient>
    <linearGradient id="blackPcb" x1="0" y1="0" x2="1" y2="1"><stop offset="0" stop-color="#2d3642"/><stop offset="1" stop-color="#111820"/></linearGradient>
    <linearGradient id="bluePcb" x1="0" y1="0" x2="1" y2="1"><stop offset="0" stop-color="#1679d5"/><stop offset="1" stop-color="#07539f"/></linearGradient>
    <filter id="shadow" x="-25%" y="-25%" width="150%" height="160%"><feDropShadow dx="0" dy="8" stdDeviation="9" flood-color="#152238" flood-opacity=".16"/></filter>
    <style>
      text { font-family: "Noto Sans TC", "Microsoft JhengHei", Arial, sans-serif; }
      .title { font-size: 38px; font-weight: 850; fill: #142033; }
      .subtitle { font-size: 18px; fill: #607087; }
      .label { font-size: 18px; font-weight: 850; fill: #172033; }
      .minor { font-size: 14px; fill: #607087; }
      .pin { font-size: 12px; font-weight: 850; fill: #fff; }
      .channel { font-size: 14px; font-weight: 800; fill: #162033; }
      .wire { fill: none; stroke-linecap: round; stroke-linejoin: round; }
    </style>
  </defs>

  <rect width="1600" height="1040" fill="url(#page)"/>
  <rect x="30" y="28" width="1540" height="982" rx="30" fill="#fff" stroke="#d8e0ea" stroke-width="2"/>
  <text x="78" y="90" class="title">Kova Hand 內部配置接線圖</text>
  <text x="78" y="124" class="subtitle">元件位置與相對比例依底座內部配置繪製</text>

  <g filter="url(#shadow)">
    <rect x="64" y="338" width="158" height="122" rx="20" fill="#28323f"/>
    <rect x="88" y="361" width="110" height="52" rx="8" fill="#141b24"/>
    <text x="143" y="382" text-anchor="middle" font-size="12" font-weight="750" fill="#b9c6d5">DC ADAPTER</text>
    <text x="143" y="402" text-anchor="middle" font-size="14" font-weight="850" fill="#fff">19 V ⎓ ≥ 2 A</text>
    <path d="M222 400 C248 400 248 438 275 438 H306" class="wire" stroke="#28323f" stroke-width="9"/>
    <circle cx="316" cy="438" r="14" fill="#161e28"/><circle cx="316" cy="438" r="6" fill="#f4f7fa"/>
  </g>
  <text x="143" y="494" text-anchor="middle" class="label">19 V DC 變壓器</text>
  <text x="143" y="518" text-anchor="middle" class="minor">5.5 × 2.1 mm DC 頭</text>

  <path d="M337 189 C416 134 1069 128 1168 187 C1233 226 1265 316 1268 463 C1270 620 1231 727 1151 777 C1041 847 478 844 357 780 C272 735 234 634 239 469 C244 323 272 234 337 189 Z" fill="url(#shell)" stroke="#9eabb9" stroke-width="4"/>
  <path d="M352 211 C432 163 1050 157 1149 210 C1202 239 1231 326 1233 463 C1235 598 1200 696 1133 740 C1026 804 493 804 375 747 C304 713 272 617 276 470 C280 337 302 246 352 211 Z" fill="#fbfcfd" stroke="#c8d1db" stroke-width="2"/>
  <text x="314" y="252" font-size="14" font-weight="800" fill="#758397" letter-spacing="2">底座內部</text>

  <g filter="url(#shadow)">
    <rect x="432" y="246" width="166" height="192" rx="12" fill="url(#blackPcb)"/>
    <rect x="474" y="260" width="82" height="57" rx="5" fill="#151c25" stroke="#4f5d70"/>
    <path d="M515 268 l20 20 -20 20 -20 -20 z" fill="#222b36" stroke="#76869a"/>
    <rect x="481" y="378" width="68" height="30" rx="6" fill="#cbd4dc"/><rect x="489" y="384" width="52" height="18" rx="4" fill="#384657"/>
    <rect x="450" y="332" width="29" height="18" rx="3" fill="#cc2635"/>
    <g fill="#d6a83e">
      <circle cx="446" cy="269" r="4"/><circle cx="446" cy="290" r="4"/><circle cx="446" cy="311" r="4"/><circle cx="446" cy="332" r="4"/><circle cx="446" cy="353" r="4"/><circle cx="446" cy="374" r="4"/><circle cx="446" cy="395" r="4"/><circle cx="446" cy="416" r="4"/>
      <circle cx="584" cy="269" r="4"/><circle cx="584" cy="290" r="4"/><circle cx="584" cy="311" r="4"/><circle cx="584" cy="332" r="4"/><circle cx="584" cy="353" r="4"/><circle cx="584" cy="374" r="4"/><circle cx="584" cy="395" r="4"/><circle cx="584" cy="416" r="4"/>
    </g>
    <text x="515" y="339" text-anchor="middle" font-size="16" font-weight="850" fill="#fff">ESP32-C3</text><text x="515" y="359" text-anchor="middle" font-size="13" font-weight="700" fill="#bbc7d5">SuperMini</text>
  </g>
  <text x="515" y="464" text-anchor="middle" class="minor">USB-C 獨立供電</text>

  <g filter="url(#shadow)">
    <rect x="678" y="224" width="112" height="213" rx="12" fill="#202832"/>
    <rect x="697" y="235" width="74" height="119" rx="9" fill="#111820"/>
    <path d="M708 246 H760 V270 H751 V322 H717 V270 H708 Z" fill="#070b10"/>
    <text x="734" y="344" text-anchor="middle" font-size="12" font-weight="850" fill="#cbd5e1">DC IN</text>
    <rect x="688" y="360" width="92" height="65" rx="7" fill="#1da45b"/>
    <circle cx="714" cy="393" r="12" fill="#dce4e8" stroke="#38485a" stroke-width="3"/><circle cx="754" cy="393" r="12" fill="#dce4e8" stroke="#38485a" stroke-width="3"/>
    <text x="714" y="421" text-anchor="middle" class="pin">＋</text><text x="754" y="421" text-anchor="middle" class="pin">−</text>
  </g>
  <g filter="url(#shadow)">
    <rect x="850" y="272" width="177" height="160" rx="13" fill="url(#blackPcb)"/>
    <circle cx="873" cy="294" r="7" fill="#d6a83e"/><circle cx="1004" cy="294" r="7" fill="#d6a83e"/>
    <rect x="903" y="292" width="72" height="63" rx="8" fill="#4b5664"/><rect x="912" y="301" width="54" height="45" rx="5" fill="#202833"/>
    <rect x="861" y="377" width="68" height="42" rx="5" fill="#1da45b"/><rect x="947" y="377" width="68" height="42" rx="5" fill="#1da45b"/>
    <circle cx="880" cy="398" r="9" fill="#dce4e8" stroke="#38485a" stroke-width="2"/><circle cx="910" cy="398" r="9" fill="#dce4e8" stroke="#38485a" stroke-width="2"/><circle cx="966" cy="398" r="9" fill="#dce4e8" stroke="#38485a" stroke-width="2"/><circle cx="996" cy="398" r="9" fill="#dce4e8" stroke="#38485a" stroke-width="2"/>
    <text x="895" y="368" text-anchor="middle" class="pin">IN</text><text x="981" y="368" text-anchor="middle" class="pin">OUT</text><text x="939" y="326" text-anchor="middle" font-size="14" font-weight="850" fill="#fff">SY8205</text>
  </g>
  <text x="939" y="250" text-anchor="middle" class="label">5 V／5 A 降壓模組</text>

  <g filter="url(#shadow)">
    <rect x="424" y="526" width="594" height="226" rx="20" fill="url(#bluePcb)"/>
    <circle cx="447" cy="549" r="8" fill="#dce7ef" stroke="#173958" stroke-width="3"/><circle cx="995" cy="549" r="8" fill="#dce7ef" stroke="#173958" stroke-width="3"/><circle cx="447" cy="729" r="8" fill="#dce7ef" stroke="#173958" stroke-width="3"/><circle cx="995" cy="729" r="8" fill="#dce7ef" stroke="#173958" stroke-width="3"/>
    <circle cx="538" cy="592" r="31" fill="#d5dee6" stroke="#44556a" stroke-width="4"/><circle cx="538" cy="592" r="19" fill="#a6b4c3"/>
    <rect x="685" y="575" width="86" height="85" rx="7" fill="#152131"/><text x="728" y="609" text-anchor="middle" font-size="14" font-weight="850" fill="#fff">PCA9685</text><text x="728" y="630" text-anchor="middle" font-size="12" font-weight="700" fill="#b9c6d5">I²C 0x40</text>
    <rect x="443" y="619" width="54" height="108" rx="7" fill="#0b427d" stroke="#7fc1f1"/>
    <circle cx="462" cy="640" r="7" fill="#7c3aed"/><text x="478" y="644" class="pin">V</text><circle cx="462" cy="664" r="7" fill="#12a46f"/><text x="478" y="668" class="pin">D</text><circle cx="462" cy="688" r="7" fill="#1683d8"/><text x="478" y="692" class="pin">C</text><circle cx="462" cy="712" r="7" fill="#273244" stroke="#e2e8f0"/><text x="478" y="716" class="pin">G</text>
    <text x="801" y="587" text-anchor="middle" class="pin">V+</text><text x="932" y="587" text-anchor="middle" class="pin">GND</text>
    <rect x="809" y="555" width="112" height="55" rx="7" fill="#1da45b"/><circle cx="839" cy="582" r="11" fill="#dce4e8" stroke="#38485a" stroke-width="3"/><circle cx="891" cy="582" r="11" fill="#dce4e8" stroke="#38485a" stroke-width="3"/>
    <rect x="781" y="637" width="218" height="102" rx="10" fill="#0b427d" stroke="#7fc1f1"/>
    <text x="770" y="661" class="pin">S</text><text x="768" y="689" class="pin">＋</text><text x="770" y="717" class="pin">−</text>
    <g transform="translate(0,0)"><circle cx="802" cy="657" r="7" fill="#f5b51b"/><circle cx="802" cy="685" r="7" fill="#e52d3b"/><circle cx="802" cy="713" r="7" fill="#273244" stroke="#dce5ef"/><text x="802" y="735" text-anchor="middle" class="pin">0</text></g>
    <g transform="translate(36,0)"><circle cx="802" cy="657" r="7" fill="#f5b51b"/><circle cx="802" cy="685" r="7" fill="#e52d3b"/><circle cx="802" cy="713" r="7" fill="#273244" stroke="#dce5ef"/><text x="802" y="735" text-anchor="middle" class="pin">1</text></g>
    <g transform="translate(72,0)"><circle cx="802" cy="657" r="7" fill="#f5b51b"/><circle cx="802" cy="685" r="7" fill="#e52d3b"/><circle cx="802" cy="713" r="7" fill="#273244" stroke="#dce5ef"/><text x="802" y="735" text-anchor="middle" class="pin">2</text></g>
    <g transform="translate(108,0)"><circle cx="802" cy="657" r="7" fill="#f5b51b"/><circle cx="802" cy="685" r="7" fill="#e52d3b"/><circle cx="802" cy="713" r="7" fill="#273244" stroke="#dce5ef"/><text x="802" y="735" text-anchor="middle" class="pin">3</text></g>
    <g transform="translate(144,0)"><circle cx="802" cy="657" r="7" fill="#f5b51b"/><circle cx="802" cy="685" r="7" fill="#e52d3b"/><circle cx="802" cy="713" r="7" fill="#273244" stroke="#dce5ef"/><text x="802" y="735" text-anchor="middle" class="pin">4</text></g>
    <g transform="translate(180,0)"><circle cx="802" cy="657" r="7" fill="#f5b51b"/><circle cx="802" cy="685" r="7" fill="#e52d3b"/><circle cx="802" cy="713" r="7" fill="#273244" stroke="#dce5ef"/><text x="802" y="735" text-anchor="middle" class="pin">5</text></g>
  </g>
  <text x="721" y="782" text-anchor="middle" class="label">PCA9685 伺服馬達驅動板</text>

  <path d="M330 438 C380 438 354 168 660 168 H734 V222" class="wire" stroke="#28323f" stroke-width="7"/><circle cx="734" cy="222" r="5" fill="#28323f"/>
  <path d="M714 426 V468 H821 V398 H871" class="wire" stroke="#dc2626" stroke-width="6"/><path d="M754 426 V482 H835 V414 H901" class="wire" stroke="#273244" stroke-width="6"/>
  <rect x="753" y="443" width="102" height="28" rx="14" fill="#fff" stroke="#e6b0b0"/><text x="804" y="462" text-anchor="middle" font-size="12" font-weight="850" fill="#b91c1c">18～20 AWG</text>
  <path d="M966 420 V494 H839 V554" class="wire" stroke="#dc2626" stroke-width="7"/><path d="M996 420 V507 H891 V554" class="wire" stroke="#273244" stroke-width="7"/>
  <rect x="894" y="477" width="144" height="29" rx="15" fill="#fff" stroke="#e6b0b0"/><text x="966" y="497" text-anchor="middle" font-size="12" font-weight="850" fill="#b91c1c">5 V／模組上限 5 A</text>

  <path d="M584 284 H625 V640 H455" class="wire" stroke="#7c3aed" stroke-width="5"/><path d="M584 311 H642 V664 H455" class="wire" stroke="#12a46f" stroke-width="5"/><path d="M584 338 H659 V688 H455" class="wire" stroke="#1683d8" stroke-width="5"/><path d="M584 365 H676 V712 H455" class="wire" stroke="#273244" stroke-width="5"/>
  <g><rect x="609" y="252" width="91" height="122" rx="12" fill="#fff" stroke="#cbd5e1" stroke-width="2"/><circle cx="625" cy="277" r="6" fill="#7c3aed"/><text x="640" y="282" class="channel">3.3V</text><circle cx="625" cy="304" r="6" fill="#12a46f"/><text x="640" y="309" class="channel">GPIO8</text><circle cx="625" cy="331" r="6" fill="#1683d8"/><text x="640" y="336" class="channel">GPIO9</text><circle cx="625" cy="358" r="6" fill="#273244"/><text x="640" y="363" class="channel">GND</text></g>

  <g>
    <path d="M802 657 C1070 657 1120 328 1260 328" class="wire" stroke="#f5b51b" stroke-width="3"/><path d="M802 685 C1080 685 1128 334 1260 334" class="wire" stroke="#e52d3b" stroke-width="3"/><path d="M802 713 C1090 713 1136 340 1260 340" class="wire" stroke="#273244" stroke-width="3"/>
    <path d="M838 657 C1085 657 1140 406 1260 406" class="wire" stroke="#f5b51b" stroke-width="3"/><path d="M838 685 C1095 685 1148 412 1260 412" class="wire" stroke="#e52d3b" stroke-width="3"/><path d="M838 713 C1105 713 1156 418 1260 418" class="wire" stroke="#273244" stroke-width="3"/>
    <path d="M874 657 C1100 657 1160 484 1260 484" class="wire" stroke="#f5b51b" stroke-width="3"/><path d="M874 685 C1110 685 1168 490 1260 490" class="wire" stroke="#e52d3b" stroke-width="3"/><path d="M874 713 C1120 713 1176 496 1260 496" class="wire" stroke="#273244" stroke-width="3"/>
    <path d="M910 657 C1120 657 1180 562 1260 562" class="wire" stroke="#f5b51b" stroke-width="3"/><path d="M910 685 C1130 685 1188 568 1260 568" class="wire" stroke="#e52d3b" stroke-width="3"/><path d="M910 713 C1140 713 1196 574 1260 574" class="wire" stroke="#273244" stroke-width="3"/>
    <path d="M946 657 C1140 657 1200 640 1260 640" class="wire" stroke="#f5b51b" stroke-width="3"/><path d="M946 685 C1150 685 1208 646 1260 646" class="wire" stroke="#e52d3b" stroke-width="3"/><path d="M946 713 C1160 713 1216 652 1260 652" class="wire" stroke="#273244" stroke-width="3"/>
    <path d="M982 657 C1160 657 1220 718 1260 718" class="wire" stroke="#f5b51b" stroke-width="3"/><path d="M982 685 C1170 685 1228 724 1260 724" class="wire" stroke="#e52d3b" stroke-width="3"/><path d="M982 713 C1180 713 1236 730 1260 730" class="wire" stroke="#273244" stroke-width="3"/>
  </g>

  <g>
    <g transform="translate(1260,305)"><rect width="252" height="58" rx="13" fill="#f8fafc" stroke="#aebccc" stroke-width="2"/><rect x="217" y="14" width="42" height="30" rx="6" fill="#cad4df"/><text x="18" y="36" class="channel">CH0 · 食指</text></g>
    <g transform="translate(1260,383)"><rect width="252" height="58" rx="13" fill="#f8fafc" stroke="#aebccc" stroke-width="2"/><rect x="217" y="14" width="42" height="30" rx="6" fill="#cad4df"/><text x="18" y="36" class="channel">CH1 · 中指</text></g>
    <g transform="translate(1260,461)"><rect width="252" height="58" rx="13" fill="#f8fafc" stroke="#aebccc" stroke-width="2"/><rect x="217" y="14" width="42" height="30" rx="6" fill="#cad4df"/><text x="18" y="36" class="channel">CH2 · 無名指</text></g>
    <g transform="translate(1260,539)"><rect width="252" height="58" rx="13" fill="#f8fafc" stroke="#aebccc" stroke-width="2"/><rect x="217" y="14" width="42" height="30" rx="6" fill="#cad4df"/><text x="18" y="36" class="channel">CH3 · 小指</text></g>
    <g transform="translate(1260,617)"><rect width="252" height="58" rx="13" fill="#f8fafc" stroke="#aebccc" stroke-width="2"/><rect x="217" y="14" width="42" height="30" rx="6" fill="#cad4df"/><text x="18" y="36" class="channel">CH4 · 拇指彎曲</text></g>
    <g transform="translate(1260,695)"><rect width="252" height="58" rx="13" fill="#f8fafc" stroke="#aebccc" stroke-width="2"/><rect x="217" y="14" width="42" height="30" rx="6" fill="#cad4df"/><text x="18" y="36" class="channel">CH5 · 拇指 CMC</text></g>
  </g>

  <rect x="250" y="870" width="1260" height="89" rx="18" fill="#f7f9fc" stroke="#d6dee8" stroke-width="2"/>
  <text x="280" y="905" font-size="14" font-weight="850" fill="#64748b" letter-spacing="2">線色圖例</text>
  <line x1="388" y1="900" x2="430" y2="900" stroke="#dc2626" stroke-width="6" stroke-linecap="round"/><text x="442" y="906" class="minor">電源正極</text>
  <line x1="550" y1="900" x2="592" y2="900" stroke="#273244" stroke-width="6" stroke-linecap="round"/><text x="604" y="906" class="minor">GND／負極</text>
  <line x1="730" y1="900" x2="772" y2="900" stroke="#7c3aed" stroke-width="5" stroke-linecap="round"/><text x="784" y="906" class="minor">3.3 V</text>
  <line x1="875" y1="900" x2="917" y2="900" stroke="#12a46f" stroke-width="5" stroke-linecap="round"/><text x="929" y="906" class="minor">SDA</text>
  <line x1="1013" y1="900" x2="1055" y2="900" stroke="#1683d8" stroke-width="5" stroke-linecap="round"/><text x="1067" y="906" class="minor">SCL</text>
  <circle cx="1162" cy="900" r="7" fill="#f5b51b"/><circle cx="1183" cy="900" r="7" fill="#e52d3b"/><circle cx="1204" cy="900" r="7" fill="#273244"/><text x="1222" y="906" class="minor">伺服：訊號／5 V／GND</text>
  <text x="880" y="940" text-anchor="middle" font-size="14" font-weight="850" fill="#245d91">VCC = 3.3 V 邏輯電源　｜　V+ = 5 V 伺服電源　｜　所有 GND 必須相連</text>
</svg>
